<svg xmlns="http://www.w3.org/2000/svg" xmlns:xlink="http://www.w3.org/1999/xlink" width="83.264" height="83.274" viewBox="0 0 83.264 83.274"><defs><clipPath id="a"><rect width="83.264" height="83.274" transform="translate(0 0)" fill="#0c3378"/></clipPath></defs><g transform="translate(0 0)"><g clip-path="url(#a)"><path d="M63.222,37.464,39.334,24.931a1.883,1.883,0,0,0-1.749,3.336L61.472,40.8a1.883,1.883,0,0,0,1.75-3.335" fill="#0c3378"/><path d="M54.45,46.236,30.564,33.7a1.883,1.883,0,1,0-1.75,3.334L52.7,49.571a1.883,1.883,0,0,0,1.75-3.335" fill="#0c3378"/><path d="M45.679,55.006,21.792,42.474a1.883,1.883,0,0,0-1.75,3.335L43.929,58.341a1.883,1.883,0,0,0,1.75-3.335" fill="#0c3378"/><path d="M80.276,2.993A10.2,10.2,0,0,0,62.871,9.475L55.714,7.909a1.878,1.878,0,0,0-1.734.507l-4.728,4.729a1.882,1.882,0,0,0,0,2.662l4.632,4.632-1.3,1.3a1.883,1.883,0,0,0,2.663,2.664l1.3-1.3,3.62,3.62-1.3,1.3a1.883,1.883,0,1,0,2.663,2.663l1.3-1.3,4.632,4.632a1.883,1.883,0,0,0,2.662,0l4.728-4.728a1.886,1.886,0,0,0,.509-1.734L73.8,20.408A10.216,10.216,0,0,0,80.276,2.993M68.793,30.022,53.247,14.476l2.668-2.669,7.448,1.63a10.177,10.177,0,0,0,6.472,6.485l1.626,7.432Zm8.82-15.24a6.453,6.453,0,1,1,0-9.126,6.41,6.41,0,0,1,0,9.126" fill="#0c3378"/><path d="M29.38,62.834l1.3-1.3a1.883,1.883,0,0,0-2.663-2.663l-1.3,1.3-3.62-3.62,1.3-1.3a1.883,1.883,0,0,0-2.663-2.664l-1.3,1.3L15.8,49.257a1.882,1.882,0,0,0-2.662,0L8.412,53.985A1.883,1.883,0,0,0,7.9,55.719l1.563,7.146A10.218,10.218,0,1,0,17.44,80.281,10.143,10.143,0,0,0,20.4,73.8l7.146,1.563a1.878,1.878,0,0,0,1.734-.508l4.728-4.728a1.882,1.882,0,0,0,0-2.662Zm-14.6,14.784a6.453,6.453,0,1,1,1.89-4.563,6.414,6.414,0,0,1-1.89,4.563m12.572-6.152L19.917,69.84a10.244,10.244,0,0,0-6.488-6.488L11.8,55.92l2.668-2.668L30.017,68.8Z" fill="#0c3378"/></g></g></svg>