<svg xmlns="http://www.w3.org/2000/svg" xmlns:xlink="http://www.w3.org/1999/xlink" width="96.361" height="83.274" viewBox="0 0 96.361 83.274"><defs><clipPath id="a"><rect width="96.361" height="83.274" fill="#0c3378"/></clipPath></defs><g clip-path="url(#a)"><path d="M93.975,28a8.148,8.148,0,0,0-11.522,0,1.883,1.883,0,0,0,2.663,2.663A4.381,4.381,0,0,1,91.705,36.4l-9.4,1.157a1.889,1.889,0,0,0-1.1.538l-2.5,2.5a4.8,4.8,0,0,0-6.258,6.258L42.578,76.73A9.485,9.485,0,1,1,29.164,63.317l40.7-40.7A13.251,13.251,0,0,0,51.12,3.881L21.246,33.755a4.807,4.807,0,0,0-6.258,6.259l-2.039,2.04L3.488,43.219a1.884,1.884,0,0,0-1.1.537A8.148,8.148,0,1,0,13.909,55.278a1.883,1.883,0,0,0-2.663-2.663,4.381,4.381,0,0,1-6.589-5.746l9.395-1.157a1.876,1.876,0,0,0,1.1-.537l2.5-2.5a4.806,4.806,0,0,0,6.258-6.258L53.784,6.545A9.484,9.484,0,1,1,67.2,19.958l-40.7,40.7a13.251,13.251,0,0,0,18.74,18.739L75.115,49.519a4.8,4.8,0,0,0,6.258-6.258l2.04-2.04,9.461-1.165a1.889,1.889,0,0,0,1.1-.538,8.148,8.148,0,0,0,0-11.522" fill="#0c3378"/></g></svg>