<svg xmlns="http://www.w3.org/2000/svg" xmlns:xlink="http://www.w3.org/1999/xlink" width="79.089" height="83.274" viewBox="0 0 79.089 83.274"><defs><clipPath id="a"><rect width="79.089" height="83.274" transform="translate(0 0.001)" fill="#0c3378"/></clipPath></defs><g transform="translate(0 0)"><g clip-path="url(#a)"><path d="M60.422,5.109A1.883,1.883,0,1,0,59.663,8.8c10.818,2.227,15.661,5.7,15.661,8.159C75.324,21.148,61.712,27,39.545,27S3.766,21.148,3.766,16.956c0-2.457,4.843-5.932,15.661-8.159a1.883,1.883,0,1,0-.759-3.688C11.7,6.543,0,9.99,0,16.956V69.468c0,8.968,20.375,13.806,39.545,13.806S79.09,78.436,79.09,69.468V16.956c0-6.966-11.7-10.413-18.668-11.847M39.545,30.761c14.178,0,29.013-2.647,35.779-7.653V58.062c0,4.192-13.612,10.039-35.779,10.039S3.766,62.254,3.766,58.062V23.108c6.766,5.006,21.6,7.653,35.779,7.653m0,48.747c-22.167,0-35.779-5.848-35.779-10.04V64.214c6.766,5.006,21.6,7.653,35.779,7.653s29.013-2.647,35.779-7.653v5.254c0,4.192-13.612,10.04-35.779,10.04" fill="#0c3378"/><path d="M27,16.963a1.883,1.883,0,0,0,1.883-1.883V10.005a30.937,30.937,0,0,0,10.657,1.7A30.915,30.915,0,0,0,50.2,10V15.08a1.883,1.883,0,1,0,3.766,0V5.824C53.929,1.228,44.891,0,39.545,0S25.162,1.228,25.124,5.824l0,.018V15.08A1.883,1.883,0,0,0,27,16.963m12.54-13.2c5.989,0,9.554,1.328,10.493,2.087-.939.758-4.5,2.087-10.493,2.087S29.991,6.611,29.052,5.853c.939-.759,4.5-2.087,10.493-2.087" fill="#0c3378"/><path d="M12.644,59.92a1.883,1.883,0,0,0,1.883-1.883V33.669a1.883,1.883,0,0,0-3.766,0V58.037a1.883,1.883,0,0,0,1.883,1.883" fill="#0c3378"/><path d="M66.446,59.92a1.883,1.883,0,0,0,1.883-1.883V33.669a1.883,1.883,0,1,0-3.766,0V58.037a1.883,1.883,0,0,0,1.883,1.883" fill="#0c3378"/><path d="M34.164,63.378a1.883,1.883,0,0,0,1.883-1.883V37.127a1.883,1.883,0,0,0-3.766,0V61.495a1.883,1.883,0,0,0,1.883,1.883" fill="#0c3378"/><path d="M44.925,63.378a1.883,1.883,0,0,0,1.883-1.883V37.127a1.883,1.883,0,0,0-3.766,0V61.495a1.883,1.883,0,0,0,1.883,1.883" fill="#0c3378"/><path d="M23.4,62.351a1.883,1.883,0,0,0,1.883-1.883V36.1a1.883,1.883,0,1,0-3.766,0V60.468A1.883,1.883,0,0,0,23.4,62.351" fill="#0c3378"/><path d="M55.685,62.351a1.883,1.883,0,0,0,1.883-1.883V36.1a1.883,1.883,0,1,0-3.766,0V60.468a1.883,1.883,0,0,0,1.883,1.883" fill="#0c3378"/></g></g></svg>