<svg xmlns="http://www.w3.org/2000/svg" xmlns:xlink="http://www.w3.org/1999/xlink" width="81.182" height="79.177" viewBox="0 0 81.182 79.177"><defs><clipPath id="a"><rect width="81.182" height="79.177" transform="translate(0 0)" fill="#0c3378"/></clipPath></defs><g transform="translate(0 0)"><g clip-path="url(#a)"><path d="M20.743,54.945H14.55a1.883,1.883,0,1,0,0,3.766h6.193a1.883,1.883,0,0,0,0-3.766" fill="#0c3378"/><path d="M43.687,54.945H37.494a1.883,1.883,0,0,0,0,3.766h6.193a1.883,1.883,0,1,0,0-3.766" fill="#0c3378"/><path d="M66.632,54.945H60.439a1.883,1.883,0,0,0,0,3.766h6.193a1.883,1.883,0,0,0,0-3.766" fill="#0c3378"/><path d="M32.215,64.182H26.022a1.883,1.883,0,1,0,0,3.766h6.193a1.883,1.883,0,1,0,0-3.766" fill="#0c3378"/><path d="M55.159,64.182H48.967a1.883,1.883,0,1,0,0,3.766h6.192a1.883,1.883,0,1,0,0-3.766" fill="#0c3378"/><path d="M68.679,4.987H40.295a1.885,1.885,0,0,0-1.582.862L31.12,17.62H24.811V12.576h2.218a1.883,1.883,0,0,0,1.882-1.883V6.01A6.016,6.016,0,0,0,22.9,0H9.358A6.016,6.016,0,0,0,3.349,6.01v4.683a1.883,1.883,0,0,0,1.883,1.883H7.45V17.62H1.883A1.883,1.883,0,0,0,0,19.5V66.674a12.517,12.517,0,0,0,12.5,12.5H68.679a12.517,12.517,0,0,0,12.5-12.5V17.49a12.517,12.517,0,0,0-12.5-12.5M7.115,6.01A2.246,2.246,0,0,1,9.358,3.766H22.9A2.246,2.246,0,0,1,25.145,6.01v2.8H7.115Zm4.1,6.566h9.829V17.62H11.216Zm20.93,8.81a1.885,1.885,0,0,0,1.583-.862L41.322,8.753H68.679a8.747,8.747,0,0,1,8.737,8.737V38.268a11.289,11.289,0,0,0-5.8,3.108c-1.506,1.308-2.695,2.34-5.217,2.34s-3.712-1.032-5.217-2.34c-1.674-1.454-3.757-3.263-7.687-3.263s-6.012,1.81-7.686,3.263c-1.505,1.308-2.694,2.34-5.216,2.34s-3.711-1.032-5.216-2.34c-1.674-1.454-3.757-3.263-7.686-3.263S21.674,39.923,20,41.376c-1.506,1.308-2.694,2.34-5.216,2.34s-3.711-1.032-5.216-2.34a11.3,11.3,0,0,0-5.8-3.108V21.386ZM68.679,75.411H12.5a8.746,8.746,0,0,1-8.737-8.737V42.12A8.544,8.544,0,0,1,7.1,44.22c1.674,1.453,3.757,3.263,7.686,3.263s6.012-1.81,7.685-3.263c1.506-1.308,2.7-2.34,5.217-2.34S31.4,42.912,32.9,44.22c1.674,1.453,3.757,3.263,7.686,3.263s6.012-1.81,7.686-3.263c1.5-1.308,2.694-2.34,5.216-2.34s3.712,1.032,5.217,2.34c1.674,1.453,3.757,3.263,7.687,3.263s6.013-1.81,7.686-3.263a8.54,8.54,0,0,1,3.335-2.1V66.674a8.747,8.747,0,0,1-8.737,8.737" fill="#0c3378"/><path d="M47.819,28.146h17.6a7.395,7.395,0,0,0,0-14.79h-17.6a7.395,7.395,0,1,0,0,14.79m0-11.024h17.6a3.629,3.629,0,0,1,0,7.258h-17.6a3.629,3.629,0,1,1,0-7.258" fill="#0c3378"/></g></g></svg>