<svg xmlns="http://www.w3.org/2000/svg" xmlns:xlink="http://www.w3.org/1999/xlink" width="83.274" height="83.274" viewBox="0 0 83.274 83.274"><defs><clipPath id="a"><rect width="83.274" height="83.274" transform="translate(0 0)" fill="#0c3378"/></clipPath></defs><g transform="translate(0 0)"><g clip-path="url(#a)"><path d="M32.248,41.637a9.389,9.389,0,1,0,9.389-9.388,9.4,9.4,0,0,0-9.389,9.388m9.389-5.622a5.622,5.622,0,1,1-5.623,5.622,5.628,5.628,0,0,1,5.623-5.622" fill="#0c3378"/><path d="M36.048,19.864A22.477,22.477,0,1,0,63.41,47.226a1.883,1.883,0,0,0-3.648-.934,18.711,18.711,0,1,1-22.78-22.78,1.883,1.883,0,1,0-.934-3.648" fill="#0c3378"/><path d="M81.115,46.7a1.884,1.884,0,0,0-2.18,1.529A37.874,37.874,0,1,1,35.046,4.338,1.883,1.883,0,1,0,34.4.629,41.64,41.64,0,1,0,82.645,48.878a1.884,1.884,0,0,0-1.53-2.18" fill="#0c3378"/><path d="M82.722,22.4,60.872.551A1.883,1.883,0,0,0,59.54,0H47.134A1.882,1.882,0,0,0,45.8.551L39.763,6.59a6.494,6.494,0,0,0,0,9.173l2.7,2.7a1.881,1.881,0,0,0,1.168.544A22.648,22.648,0,0,1,64.264,39.64a1.88,1.88,0,0,0,.545,1.169l2.7,2.7a6.485,6.485,0,0,0,9.172,0l6.039-6.039a1.879,1.879,0,0,0,.552-1.331V23.734a1.88,1.88,0,0,0-.552-1.332M79.508,35.36l-5.487,5.487a2.721,2.721,0,0,1-3.848,0L67.947,38.62A26.4,26.4,0,0,0,44.653,15.327L42.426,13.1a2.722,2.722,0,0,1,0-3.847l5.488-5.487H58.76L61.293,6.3l-1.74,1.74A1.883,1.883,0,1,0,62.216,10.7l1.74-1.74L67.8,12.808l-1.74,1.74a1.883,1.883,0,1,0,2.663,2.663l1.74-1.74,3.846,3.847-1.74,1.74a1.883,1.883,0,1,0,2.663,2.663l1.74-1.74,2.533,2.533Z" fill="#0c3378"/></g></g></svg>