<svg xmlns="http://www.w3.org/2000/svg" xmlns:xlink="http://www.w3.org/1999/xlink" width="85.109" height="85.109" viewBox="0 0 85.109 85.109"><defs><clipPath id="a"><rect width="85.109" height="85.109" transform="translate(0 0)" fill="#0c3378"/></clipPath></defs><g transform="translate(0 0)"><g clip-path="url(#a)"><path d="M57.99,58.48l-1.5-1.5.481-.482A8.7,8.7,0,0,0,57.153,44.4L70.1,31.462a1.873,1.873,0,0,0,.47-.786l1.81-5.974,3.065-3.064a1.909,1.909,0,0,0,.355-.5l2.075-4.181a5.568,5.568,0,0,0,5.461-1.4,5.916,5.916,0,0,0,.3-8.138L77.684,1.482a5.916,5.916,0,0,0-8.138.3,5.568,5.568,0,0,0-1.4,5.461L63.966,9.314a1.909,1.909,0,0,0-.495.355l-3.064,3.065-5.974,1.81a1.873,1.873,0,0,0-.786.47L40.706,27.956a8.7,8.7,0,0,0-12.093.185l-.482.481-1.5-1.5a1.884,1.884,0,0,0-2.663,0L16.09,34.994a1.884,1.884,0,0,0,0,2.663l1.5,1.5-3.086,3.086a5.084,5.084,0,0,0,0,7.182l.407.407L2.949,61.8a5.682,5.682,0,0,0,0,8.027l1.812,1.812-4.21,4.21a1.884,1.884,0,0,0,0,2.663L6.6,84.558A1.883,1.883,0,1,0,9.26,81.895L4.546,77.18,7.424,74.3l7.858,7.858a5.682,5.682,0,0,0,8.027,0L35.274,70.195l.407.407a5.084,5.084,0,0,0,7.182,0l3.086-3.086,1.5,1.5a1.884,1.884,0,0,0,2.663,0l7.875-7.876a1.884,1.884,0,0,0,0-2.663M55.977,18.011l4.893-1.482,7.71,7.71L67.1,29.132,54.5,41.73,43.379,30.609ZM75.021,4.145l5.943,5.943a2.193,2.193,0,0,1-.3,2.812,1.783,1.783,0,0,1-2.413.091,1.882,1.882,0,0,0-2.913.592l-2.784,5.61-1.849,1.849L64.067,14.4l1.849-1.848,5.61-2.784a1.882,1.882,0,0,0,.592-2.913,1.784,1.784,0,0,1,.091-2.413,2.193,2.193,0,0,1,2.812-.3M20.646,79.5a1.912,1.912,0,0,1-2.7,0L5.612,67.164a1.912,1.912,0,0,1,0-2.7L17.577,52.5,32.611,67.532ZM40.2,67.939a1.314,1.314,0,0,1-1.855,0L17.17,46.765a1.315,1.315,0,0,1,0-1.856l3.086-3.086,23.03,23.03Zm8.583-2.915-7.79-7.79,1.226-1.227a1.883,1.883,0,0,0-2.663-2.664L38.329,54.57l-7.79-7.79,1.227-1.227A1.883,1.883,0,0,0,29.1,42.89l-1.227,1.227-7.791-7.791L25.3,31.114l1.5,1.5a1.882,1.882,0,0,0,2.663,0L31.276,30.8a4.934,4.934,0,0,1,6.972,0L54.305,46.861a4.936,4.936,0,0,1,0,6.972l-1.812,1.813a1.882,1.882,0,0,0,0,2.663l1.5,1.5Z" fill="#0c3378"/><path d="M13.594,64.493l7.022,7.022a1.883,1.883,0,0,0,2.663-2.663L16.257,61.83a1.883,1.883,0,0,0-2.663,2.663" fill="#0c3378"/></g></g></svg>