<svg xmlns="http://www.w3.org/2000/svg" xmlns:xlink="http://www.w3.org/1999/xlink" width="87.459" height="87.459" viewBox="0 0 87.459 87.459"><defs><clipPath id="a"><rect width="87.459" height="87.459" transform="translate(0 0)" fill="#0c3378"/></clipPath></defs><g transform="translate(0 0)"><g clip-path="url(#a)"><path d="M44.847,87.458H42.612a1.883,1.883,0,0,1-1.744-1.172l-1.64-4.027q-.565-.064-1.124-.145l-2.625,3.463a1.885,1.885,0,0,1-1.988.681l-2.159-.579A1.884,1.884,0,0,1,29.951,84.1L29.41,79.79q-.528-.21-1.052-.437l-3.429,2.662a1.886,1.886,0,0,1-2.1.144L20.9,81.041a1.884,1.884,0,0,1-.924-1.887l.593-4.309q-.453-.337-.9-.688l-4.009,1.687a1.883,1.883,0,0,1-2.062-.4l-1.581-1.58a1.885,1.885,0,0,1-.4-2.063L13.3,67.789q-.351-.444-.689-.9l-4.308.592a1.88,1.88,0,0,1-1.887-.924L5.3,64.627a1.883,1.883,0,0,1,.144-2.1L8.106,59.1q-.227-.524-.437-1.052l-4.305-.542A1.881,1.881,0,0,1,1.78,56.126L1.2,53.968a1.883,1.883,0,0,1,.681-1.988l3.463-2.625Q5.264,48.8,5.2,48.231L1.173,46.59A1.883,1.883,0,0,1,0,44.846V42.612a1.883,1.883,0,0,1,1.173-1.744L5.2,39.227q.066-.564.146-1.123L1.882,35.478A1.882,1.882,0,0,1,1.2,33.491l.578-2.159a1.885,1.885,0,0,1,1.584-1.381l4.306-.542c.14-.351.286-.7.437-1.052L5.444,24.928a1.881,1.881,0,0,1-.144-2.1L6.418,20.9a1.885,1.885,0,0,1,1.887-.924l4.309.592q.336-.452.688-.9L11.614,15.66a1.884,1.884,0,0,1,.4-2.062l1.58-1.58a1.883,1.883,0,0,1,2.063-.4L19.67,13.3q.443-.351.9-.689L19.973,8.3A1.884,1.884,0,0,1,20.9,6.417L22.832,5.3a1.885,1.885,0,0,1,2.1.143l3.429,2.663c.349-.151.7-.3,1.052-.438l.541-4.305a1.884,1.884,0,0,1,1.382-1.584L33.491,1.2a1.883,1.883,0,0,1,1.988.681L38.1,5.344q.558-.079,1.124-.145l1.64-4.027A1.883,1.883,0,0,1,42.612,0h2.235a1.882,1.882,0,0,1,1.744,1.172L48.231,5.2q.566.065,1.124.145L51.98,1.882A1.884,1.884,0,0,1,53.968,1.2l2.159.578a1.884,1.884,0,0,1,1.381,1.584l.541,4.306q.528.21,1.053.437L62.53,5.443a1.883,1.883,0,0,1,2.1-.143l1.935,1.117A1.884,1.884,0,0,1,67.486,8.3l-.593,4.309q.453.338.9.689l4.01-1.688a1.882,1.882,0,0,1,2.062.4l1.58,1.58a1.884,1.884,0,0,1,.4,2.062l-1.688,4.009q.351.444.689.9l4.308-.592a1.885,1.885,0,0,1,1.888.924l1.117,1.935a1.883,1.883,0,0,1-.143,2.1l-2.663,3.429q.227.525.437,1.052l4.306.542a1.883,1.883,0,0,1,1.584,1.381l.578,2.158a1.883,1.883,0,0,1-.681,1.988L82.114,38.1q.081.558.146,1.123l4.026,1.641a1.883,1.883,0,0,1,1.173,1.744v2.234a1.882,1.882,0,0,1-1.172,1.744L82.26,48.231q-.064.566-.146,1.124l3.463,2.625a1.883,1.883,0,0,1,.681,1.988l-.578,2.158A1.881,1.881,0,0,1,84.1,57.507l-4.306.542q-.21.528-.437,1.052l2.663,3.429a1.883,1.883,0,0,1,.143,2.1l-1.117,1.935a1.883,1.883,0,0,1-1.888.924l-4.308-.592q-.337.452-.689.9L75.845,71.8a1.885,1.885,0,0,1-.4,2.063l-1.58,1.58a1.882,1.882,0,0,1-2.062.4l-4.01-1.687q-.442.351-.9.688l.593,4.309a1.882,1.882,0,0,1-.924,1.887l-1.935,1.118a1.886,1.886,0,0,1-2.1-.144L59.1,79.353q-.525.227-1.052.437L57.508,84.1a1.884,1.884,0,0,1-1.381,1.584l-2.159.579a1.885,1.885,0,0,1-1.988-.681l-2.625-3.463q-.558.081-1.124.145l-1.64,4.027a1.882,1.882,0,0,1-1.744,1.172m-7.561-9.265a1.815,1.815,0,0,1,.327.029c1,.176,2.044.311,3.092.4a1.884,1.884,0,0,1,1.583,1.166l1.442,3.538,1.441-3.538a1.886,1.886,0,0,1,1.583-1.166c1.049-.09,2.089-.225,3.093-.4a1.883,1.883,0,0,1,1.827.716l2.3,3.04.476-3.78a1.88,1.88,0,0,1,1.226-1.535c.964-.351,1.935-.754,2.883-1.2a1.883,1.883,0,0,1,1.954.218l3.012,2.339-.521-3.784a1.883,1.883,0,0,1,.786-1.8c.843-.59,1.675-1.229,2.47-1.9a1.882,1.882,0,0,1,1.943-.294l3.523,1.483-1.483-3.522a1.882,1.882,0,0,1,.294-1.943c.669-.8,1.308-1.627,1.9-2.471a1.882,1.882,0,0,1,1.8-.785l3.784.52-2.339-3.012a1.881,1.881,0,0,1-.218-1.953c.444-.95.847-1.92,1.2-2.884A1.885,1.885,0,0,1,78.2,54.453l3.78-.475-3.039-2.305a1.881,1.881,0,0,1-.717-1.827c.177-1,.312-2.044.4-3.092a1.881,1.881,0,0,1,1.165-1.583l3.539-1.442-3.539-1.442A1.881,1.881,0,0,1,78.624,40.7c-.09-1.048-.225-2.088-.4-3.091a1.882,1.882,0,0,1,.717-1.828l3.04-2.305L78.2,33.005a1.885,1.885,0,0,1-1.535-1.226c-.35-.964-.753-1.934-1.2-2.883a1.883,1.883,0,0,1,.218-1.954l2.339-3.012-3.784.52a1.88,1.88,0,0,1-1.8-.785c-.593-.846-1.231-1.677-1.9-2.47a1.882,1.882,0,0,1-.294-1.943l1.483-3.523-3.523,1.483a1.886,1.886,0,0,1-1.943-.294c-.795-.669-1.626-1.308-2.47-1.9a1.883,1.883,0,0,1-.786-1.8l.521-3.784-3.012,2.339a1.883,1.883,0,0,1-1.954.218c-.948-.444-1.918-.846-2.883-1.2a1.882,1.882,0,0,1-1.226-1.535l-.476-3.78-2.3,3.039a1.883,1.883,0,0,1-1.828.717c-1-.177-2.043-.312-3.091-.4A1.883,1.883,0,0,1,45.171,7.67L43.73,4.131,42.288,7.67A1.883,1.883,0,0,1,40.7,8.835c-1.047.09-2.087.225-3.091.4a1.884,1.884,0,0,1-1.828-.717l-2.3-3.039-.476,3.78A1.882,1.882,0,0,1,31.779,10.8c-.962.349-1.931.752-2.883,1.2a1.882,1.882,0,0,1-1.953-.218L23.931,9.436l.52,3.784a1.884,1.884,0,0,1-.785,1.8c-.846.592-1.677,1.23-2.471,1.9a1.886,1.886,0,0,1-1.943.294L15.73,15.729l1.483,3.523a1.884,1.884,0,0,1-.3,1.943c-.669.8-1.307,1.626-1.9,2.47a1.879,1.879,0,0,1-1.8.785l-3.783-.52,2.339,3.012a1.885,1.885,0,0,1,.218,1.954c-.445.949-.848,1.919-1.2,2.883a1.884,1.884,0,0,1-1.535,1.226l-3.78.475L8.52,35.785a1.882,1.882,0,0,1,.717,1.827c-.177,1-.312,2.045-.4,3.092A1.884,1.884,0,0,1,7.67,42.287L4.132,43.729,7.67,45.171a1.884,1.884,0,0,1,1.166,1.583c.089,1.047.224,2.088.4,3.092a1.88,1.88,0,0,1-.717,1.827L5.481,53.978l3.78.475A1.884,1.884,0,0,1,10.8,55.679c.35.964.753,1.935,1.2,2.883a1.885,1.885,0,0,1-.218,1.954L9.437,63.528l3.783-.52a1.881,1.881,0,0,1,1.8.785c.59.844,1.229,1.675,1.9,2.471a1.884,1.884,0,0,1,.3,1.943L15.73,71.729l3.522-1.483a1.886,1.886,0,0,1,1.943.294c.8.669,1.626,1.308,2.471,1.9a1.884,1.884,0,0,1,.785,1.8l-.52,3.784,3.012-2.339a1.882,1.882,0,0,1,1.953-.218c.948.444,1.918.847,2.884,1.2A1.881,1.881,0,0,1,33.005,78.2l.476,3.78,2.305-3.04a1.882,1.882,0,0,1,1.5-.745" fill="#0c3378"/><path d="M43.729,54.015A10.285,10.285,0,1,1,54.015,43.729,10.3,10.3,0,0,1,43.729,54.015m0-16.805a6.519,6.519,0,1,0,6.519,6.519,6.526,6.526,0,0,0-6.519-6.519" fill="#0c3378"/><path d="M43.729,25.446a3.766,3.766,0,1,1,3.766-3.766,3.77,3.77,0,0,1-3.766,3.766" fill="#0c3378"/><path d="M24.632,36.471A3.767,3.767,0,1,1,27.9,34.588a3.763,3.763,0,0,1-3.263,1.883" fill="#0c3378"/><path d="M24.635,58.521a3.767,3.767,0,1,1,1.881-.505,3.778,3.778,0,0,1-1.881.505" fill="#0c3378"/><path d="M43.729,69.545a3.766,3.766,0,1,1,3.766-3.766,3.77,3.77,0,0,1-3.766,3.766" fill="#0c3378"/><path d="M62.823,58.521a3.766,3.766,0,1,1,3.264-1.883,3.759,3.759,0,0,1-3.264,1.883" fill="#0c3378"/><path d="M62.827,36.471a3.767,3.767,0,1,1,3.26-5.65,3.767,3.767,0,0,1-3.26,5.65" fill="#0c3378"/></g></g></svg>