<svg xmlns="http://www.w3.org/2000/svg" xmlns:xlink="http://www.w3.org/1999/xlink" width="83.29" height="87.79" viewBox="0 0 83.29 87.79"><defs><clipPath id="a"><rect width="83.29" height="87.79" transform="translate(0 0)" fill="#0c3378"/></clipPath></defs><g transform="translate(0 0)"><g clip-path="url(#a)"><path d="M28.746,81.932a2.929,2.929,0,1,0,2.929,2.929,2.932,2.932,0,0,0-2.929-2.929" fill="#0c3378"/><path d="M41.645,81.932a2.929,2.929,0,1,0,2.929,2.929,2.932,2.932,0,0,0-2.929-2.929" fill="#0c3378"/><path d="M54.544,81.932a2.929,2.929,0,1,0,2.929,2.929,2.932,2.932,0,0,0-2.929-2.929" fill="#0c3378"/><path d="M81.845,62.6,48.327,4.55C46.633,1.616,44.26,0,41.646,0s-4.988,1.616-6.682,4.55L1.446,62.6c-1.694,2.934-1.907,5.8-.6,8.061s3.893,3.511,7.281,3.511H75.164c3.388,0,5.973-1.247,7.281-3.511s1.094-5.127-.6-8.061M38.226,6.433c.978-1.7,2.225-2.667,3.42-2.667s2.441.972,3.419,2.667l28.985,50.2H62.494L35.867,10.518Zm19.919,50.2h-33l16.5-28.578ZM4.108,68.783c-.6-1.035-.379-2.6.6-4.295l28.985-50.2,5.778,10.008L12.844,70.411H8.128c-1.957,0-3.422-.593-4.02-1.628m75.075,0c-.6,1.035-2.062,1.628-4.019,1.628H17.194L22.972,60.4H76.225l2.358,4.085c.979,1.695,1.2,3.26.6,4.295" fill="#0c3378"/></g></g></svg>