<svg xmlns="http://www.w3.org/2000/svg" xmlns:xlink="http://www.w3.org/1999/xlink" width="83.274" height="83.274" viewBox="0 0 83.274 83.274"><defs><clipPath id="a"><rect width="83.274" height="83.274" transform="translate(0 0)" fill="#0c3378"/></clipPath></defs><g transform="translate(0 0)"><g clip-path="url(#a)"><path d="M74.277,33.9H9a9.008,9.008,0,0,0-9,9V74.277a9.007,9.007,0,0,0,9,9h65.28a9.007,9.007,0,0,0,9-9V42.892a9.008,9.008,0,0,0-9-9m0,45.613H43.52V72.813a1.883,1.883,0,1,0-3.766,0v6.695H9a5.236,5.236,0,0,1-5.231-5.231V71.871H26.182a1.883,1.883,0,1,0,0-3.766H3.766V60.468H20.454a1.883,1.883,0,0,0,0-3.766H3.766V49.065H26.182a1.883,1.883,0,1,0,0-3.766H3.766V42.892A5.236,5.236,0,0,1,9,37.662H39.754v6.695a1.883,1.883,0,1,0,3.766,0V37.662H74.277a5.236,5.236,0,0,1,5.231,5.23V45.3H57.092a1.883,1.883,0,0,0,0,3.766H79.508V56.7H62.819a1.883,1.883,0,0,0,0,3.766H79.508v7.637H57.092a1.883,1.883,0,1,0,0,3.766H79.508v2.406a5.236,5.236,0,0,1-5.231,5.231" fill="#0c3378"/><path d="M48.592,50.843H34.682a7.741,7.741,0,0,0,0,15.483h13.91a7.741,7.741,0,1,0,0-15.483m0,11.717H34.682a3.976,3.976,0,0,1,0-7.951h13.91a3.976,3.976,0,0,1,0,7.951" fill="#0c3378"/><path d="M10.954,10.608l4.179-4.179V23.422a1.883,1.883,0,0,0,3.766,0V6.429l4.18,4.179a1.883,1.883,0,1,0,2.663-2.663L18.348.551a1.884,1.884,0,0,0-2.663,0L8.291,7.945a1.883,1.883,0,0,0,2.663,2.663" fill="#0c3378"/><path d="M34.243,11.16a1.877,1.877,0,0,0,1.331-.551l4.18-4.18V23.423a1.883,1.883,0,1,0,3.766,0V6.429l4.18,4.18a1.883,1.883,0,1,0,2.662-2.664L42.968.551a1.884,1.884,0,0,0-2.663,0L32.912,7.945a1.883,1.883,0,0,0,1.331,3.215" fill="#0c3378"/><path d="M60.195,10.608l4.18-4.179V23.422a1.883,1.883,0,1,0,3.766,0V6.429l4.179,4.179a1.883,1.883,0,1,0,2.663-2.663L67.589.551a1.884,1.884,0,0,0-2.663,0L57.532,7.945a1.883,1.883,0,1,0,2.663,2.663" fill="#0c3378"/></g></g></svg>