<svg xmlns="http://www.w3.org/2000/svg" xmlns:xlink="http://www.w3.org/1999/xlink" width="95.985" height="81.56" viewBox="0 0 95.985 81.56"><defs><clipPath id="a"><rect width="95.985" height="81.56" transform="translate(0 0)" fill="#0c3378"/></clipPath></defs><g transform="translate(0 0)"><g clip-path="url(#a)"><path d="M95.156,10.257a1.884,1.884,0,0,0-1.758-.185L70.562,19.279a10.357,10.357,0,0,0-8.443-7.563v-4.5a1.883,1.883,0,0,0-1.3-1.791L44.4.092A1.876,1.876,0,0,0,43.208.1L27.473,5.435a1.882,1.882,0,0,0-1.279,1.783v4.5a10.294,10.294,0,0,0-5.5,2.669l-1.052-.6A13.141,13.141,0,0,0,6.655,36.637l10.75,6.109v4.5a1.883,1.883,0,0,0,1.883,1.883h7.568a1.883,1.883,0,1,0,0-3.766H21.171V21.929a6.57,6.57,0,0,1,6.563-6.562H60.58a6.57,6.57,0,0,1,6.562,6.562V45.361H61.458a1.883,1.883,0,1,0,0,3.766h7.567a1.883,1.883,0,0,0,1.883-1.883v-8.2L95.291,19.207a1.883,1.883,0,0,0,.694-1.46V11.818a1.886,1.886,0,0,0-.829-1.561m-86.64,23.1A9.375,9.375,0,0,1,5,20.58a9.37,9.37,0,0,1,12.782-3.518l.658.373a10.264,10.264,0,0,0-1.031,4.494V38.414ZM29.96,11.6V8.568l13.866-4.7L58.353,8.586V11.6Zm62.259,5.25L70.908,34.191V23.2l21.311-8.592Z" fill="#0c3378"/><path d="M44.156,36.676a1.88,1.88,0,0,0-1.392.615c-1.638,1.8-16,17.837-16,26.873a17.4,17.4,0,0,0,34.792,0c0-9.036-14.366-25.074-16-26.873a1.882,1.882,0,0,0-1.392-.615m0,41.118a13.646,13.646,0,0,1-13.63-13.63c0-5.8,8.837-17.22,13.63-22.764,4.793,5.544,13.63,16.964,13.63,22.764a13.646,13.646,0,0,1-13.63,13.63" fill="#0c3378"/><path d="M38.9,64.19a1.883,1.883,0,0,0-1.883-1.874H37a1.883,1.883,0,0,0-1.874,1.892,9.045,9.045,0,0,0,9.027,8.983,1.883,1.883,0,1,0,0-3.766A5.272,5.272,0,0,1,38.9,64.19" fill="#0c3378"/></g></g></svg>