<svg xmlns="http://www.w3.org/2000/svg" width="83.264" height="83.274"><defs><clipPath id="a"><path fill="#0c3378" d="M0 0h83.264v83.274H0z"/></clipPath></defs><g clip-path="url(#a)" fill="#0c3378"><path d="M63.222 37.464L39.334 24.931a1.883 1.883 0 00-1.749 3.336L61.472 40.8a1.883 1.883 0 001.75-3.335m-8.772 8.771L30.564 33.7a1.883 1.883 0 10-1.75 3.334L52.7 49.571a1.883 1.883 0 001.75-3.335m-8.771 8.77L21.792 42.474a1.883 1.883 0 00-1.75 3.335l23.887 12.532a1.883 1.883 0 001.75-3.335M80.276 2.993a10.2 10.2 0 00-17.405 6.482l-7.157-1.566a1.878 1.878 0 00-1.734.507l-4.728 4.729a1.882 1.882 0 000 2.662l4.632 4.632-1.3 1.3a1.883 1.883 0 002.663 2.664l1.3-1.3 3.62 3.62-1.3 1.3a1.883 1.883 0 102.663 2.663l1.3-1.3 4.632 4.632a1.883 1.883 0 002.662 0l4.728-4.728a1.886 1.886 0 00.509-1.734L73.8 20.408a10.216 10.216 0 006.476-17.415M68.793 30.022L53.247 14.476l2.668-2.669 7.448 1.63a10.177 10.177 0 006.472 6.485l1.626 7.432zm8.82-15.24a6.453 6.453 0 110-9.126 6.41 6.41 0 010 9.126M29.38 62.834l1.3-1.3a1.883 1.883 0 00-2.663-2.663l-1.3 1.3-3.62-3.62 1.3-1.3a1.883 1.883 0 00-2.663-2.664l-1.3 1.3-4.634-4.63a1.882 1.882 0 00-2.662 0l-4.726 4.728a1.883 1.883 0 00-.512 1.734l1.563 7.146a10.218 10.218 0 107.977 17.416A10.143 10.143 0 0020.4 73.8l7.146 1.563a1.878 1.878 0 001.734-.508l4.728-4.728a1.882 1.882 0 000-2.662zm-14.6 14.784a6.453 6.453 0 111.89-4.563 6.414 6.414 0 01-1.89 4.563m12.572-6.152l-7.435-1.626a10.244 10.244 0 00-6.488-6.488L11.8 55.92l2.668-2.668L30.017 68.8z"/></g></svg>