<svg xmlns="http://www.w3.org/2000/svg" width="96.361" height="83.274"><defs><clipPath id="a"><path fill="#0c3378" d="M0 0h96.361v83.274H0z"/></clipPath></defs><g clip-path="url(#a)"><path d="M93.975 28a8.148 8.148 0 00-11.522 0 1.883 1.883 0 002.663 2.663 4.381 4.381 0 016.589 5.737l-9.4 1.157a1.889 1.889 0 00-1.1.538l-2.5 2.5a4.8 4.8 0 00-6.258 6.258L42.578 76.73a9.485 9.485 0 11-13.414-13.413l40.7-40.7A13.251 13.251 0 0051.12 3.881L21.246 33.755a4.807 4.807 0 00-6.258 6.259l-2.039 2.04-9.461 1.165a1.884 1.884 0 00-1.1.537 8.148 8.148 0 1011.521 11.522 1.883 1.883 0 00-2.663-2.663 4.381 4.381 0 01-6.589-5.746l9.395-1.157a1.876 1.876 0 001.1-.537l2.5-2.5a4.806 4.806 0 006.258-6.258L53.784 6.545A9.484 9.484 0 1167.2 19.958l-40.7 40.7a13.251 13.251 0 0018.74 18.739l29.875-29.878a4.8 4.8 0 006.258-6.258l2.04-2.04 9.461-1.165a1.889 1.889 0 001.1-.538 8.148 8.148 0 000-11.522" fill="#0c3378"/></g></svg>