<svg xmlns="http://www.w3.org/2000/svg" width="83.274" height="83.274"><defs><clipPath id="a"><path fill="#0c3378" d="M0 0h83.274v83.274H0z"/></clipPath></defs><g clip-path="url(#a)" fill="#0c3378"><path d="M41.637 83.274a41.637 41.637 0 1141.637-41.637 41.685 41.685 0 01-41.637 41.637m0-79.508a37.871 37.871 0 1037.871 37.871A37.914 37.914 0 0041.637 3.766m9.106 69.787a1.885 1.885 0 01-1.883-1.883V59.341a1.883 1.883 0 011.021-1.674 18.147 18.147 0 008.989-10.725 1.883 1.883 0 011.8-1.33h11.795a1.882 1.882 0 011.85 2.234A33.172 33.172 0 0151.29 73.471a1.86 1.86 0 01-.547.082m1.883-13.1v8.561A29.394 29.394 0 0070.1 49.378h-8.087a21.97 21.97 0 01-9.387 11.075m-20.1 13.1a1.865 1.865 0 01-.547-.082 33.174 33.174 0 01-23.02-25.625 1.883 1.883 0 011.85-2.234H22.6a1.882 1.882 0 011.8 1.33 18.145 18.145 0 008.99 10.725 1.884 1.884 0 011.02 1.674V71.67a1.885 1.885 0 01-1.883 1.883M13.172 49.378a29.4 29.4 0 0017.476 19.636v-8.561a21.968 21.968 0 01-9.386-11.075zm59.293-11.717H60.031a1.883 1.883 0 01-1.394-.617c-3.173-3.492-9.845-5.749-17-5.749s-13.827 2.257-17 5.749a1.879 1.879 0 01-1.393.617H10.809a1.883 1.883 0 01-1.85-2.234 33.262 33.262 0 0165.356 0 1.882 1.882 0 01-1.85 2.234M60.828 33.9H70.1a29.5 29.5 0 00-56.928 0h9.273c4.056-3.945 11.3-6.366 19.191-6.366S56.772 29.95 60.828 33.9"/><path d="M48.359 43.233H34.916a1.883 1.883 0 010-3.766h13.443a1.883 1.883 0 010 3.766m-4.145 9.207h-5.155a1.883 1.883 0 110-3.766h5.155a1.883 1.883 0 110 3.766"/></g></svg>