<svg xmlns="http://www.w3.org/2000/svg" width="83.29" height="87.79"><defs><clipPath id="a"><path fill="#0c3378" d="M0 0h83.29v87.79H0z"/></clipPath></defs><g clip-path="url(#a)" fill="#0c3378"><path d="M28.746 81.932a2.929 2.929 0 102.929 2.929 2.932 2.932 0 00-2.929-2.929m12.899 0a2.929 2.929 0 102.929 2.929 2.932 2.932 0 00-2.929-2.929m12.899 0a2.929 2.929 0 102.929 2.929 2.932 2.932 0 00-2.929-2.929M81.845 62.6L48.327 4.55C46.633 1.616 44.26 0 41.646 0s-4.988 1.616-6.682 4.55L1.446 62.6c-1.694 2.934-1.907 5.8-.6 8.061s3.893 3.511 7.281 3.511h67.037c3.388 0 5.973-1.247 7.281-3.511s1.094-5.127-.6-8.061M38.226 6.433c.978-1.7 2.225-2.667 3.42-2.667s2.441.972 3.419 2.667l28.985 50.2H62.494L35.867 10.518zm19.919 50.2h-33l16.5-28.578zM4.108 68.783c-.6-1.035-.379-2.6.6-4.295l28.985-50.2 5.778 10.008-26.627 46.115H8.128c-1.957 0-3.422-.593-4.02-1.628m75.075 0c-.6 1.035-2.062 1.628-4.019 1.628h-57.97L22.972 60.4h53.253l2.358 4.085c.979 1.695 1.2 3.26.6 4.295"/></g></svg>