<svg xmlns="http://www.w3.org/2000/svg" width="81.182" height="79.177"><defs><clipPath id="a"><path fill="#0c3378" d="M0 0h81.182v79.177H0z"/></clipPath></defs><g clip-path="url(#a)" fill="#0c3378"><path d="M20.743 54.945H14.55a1.883 1.883 0 100 3.766h6.193a1.883 1.883 0 000-3.766m22.944 0h-6.193a1.883 1.883 0 000 3.766h6.193a1.883 1.883 0 100-3.766m22.945 0h-6.193a1.883 1.883 0 000 3.766h6.193a1.883 1.883 0 000-3.766m-34.417 9.237h-6.193a1.883 1.883 0 100 3.766h6.193a1.883 1.883 0 100-3.766m22.944 0h-6.192a1.883 1.883 0 100 3.766h6.192a1.883 1.883 0 100-3.766"/><path d="M68.679 4.987H40.295a1.885 1.885 0 00-1.582.862L31.12 17.62h-6.309v-5.044h2.218a1.883 1.883 0 001.882-1.883V6.01A6.016 6.016 0 0022.9 0H9.358a6.016 6.016 0 00-6.009 6.01v4.683a1.883 1.883 0 001.883 1.883H7.45v5.044H1.883A1.883 1.883 0 000 19.5v47.174a12.517 12.517 0 0012.5 12.5h56.179a12.517 12.517 0 0012.5-12.5V17.49a12.517 12.517 0 00-12.5-12.5M7.115 6.01a2.246 2.246 0 012.243-2.244H22.9a2.246 2.246 0 012.245 2.244v2.8H7.115zm4.1 6.566h9.829v5.044h-9.828zm20.93 8.81a1.885 1.885 0 001.583-.862l7.594-11.771h27.357a8.747 8.747 0 018.737 8.737v20.778a11.289 11.289 0 00-5.8 3.108c-1.506 1.308-2.695 2.34-5.217 2.34s-3.712-1.032-5.217-2.34c-1.674-1.454-3.757-3.263-7.687-3.263s-6.012 1.81-7.686 3.263c-1.505 1.308-2.694 2.34-5.216 2.34s-3.711-1.032-5.216-2.34c-1.674-1.454-3.757-3.263-7.686-3.263s-6.017 1.81-7.691 3.263c-1.506 1.308-2.694 2.34-5.216 2.34s-3.711-1.032-5.216-2.34a11.3 11.3 0 00-5.8-3.108V21.386zm36.534 54.025H12.5a8.746 8.746 0 01-8.737-8.737V42.12a8.544 8.544 0 013.337 2.1c1.674 1.453 3.757 3.263 7.686 3.263s6.012-1.81 7.685-3.263c1.506-1.308 2.7-2.34 5.217-2.34s3.712 1.032 5.212 2.34c1.674 1.453 3.757 3.263 7.686 3.263s6.012-1.81 7.686-3.263c1.5-1.308 2.694-2.34 5.216-2.34s3.712 1.032 5.217 2.34c1.674 1.453 3.757 3.263 7.687 3.263s6.013-1.81 7.686-3.263a8.54 8.54 0 013.335-2.1v24.554a8.747 8.747 0 01-8.737 8.737"/><path d="M47.819 28.146h17.6a7.395 7.395 0 000-14.79h-17.6a7.395 7.395 0 100 14.79m0-11.024h17.6a3.629 3.629 0 010 7.258h-17.6a3.629 3.629 0 110-7.258"/></g></svg>