<svg xmlns="http://www.w3.org/2000/svg" width="83.274" height="83.274"><defs><clipPath id="a"><path fill="#0c3378" d="M0 0h83.274v83.274H0z"/></clipPath></defs><g clip-path="url(#a)" fill="#0c3378"><path d="M75.753 12.533C70.729 4.451 63.956 0 56.68 0H26.594C19.319 0 12.545 4.451 7.522 12.533 2.671 20.336 0 30.672 0 41.637s2.671 21.3 7.522 29.1c5.023 8.082 11.8 12.533 19.072 12.533H56.68c7.276 0 14.049-4.451 19.073-12.533 4.85-7.8 7.521-18.139 7.521-29.1s-2.671-21.3-7.521-29.1M26.594 79.508a16.223 16.223 0 01-10.9-4.6h11.242a1.883 1.883 0 100-3.766H12.3a34.753 34.753 0 01-2.89-4.6h5.3a1.884 1.884 0 000-3.767H7.659a56.6 56.6 0 01-3.893-21.138c0-20.882 10.241-37.871 22.828-37.871h18.937a30.389 30.389 0 00-7.924 8.767c-4.85 7.8-7.521 18.139-7.521 29.1s2.671 21.3 7.521 29.1a30.376 30.376 0 007.924 8.767zm30.086 0c-12.587 0-22.828-16.989-22.828-37.871S44.093 3.766 56.68 3.766s22.828 16.989 22.828 37.871S69.267 79.508 56.68 79.508"/><path d="M56.68 12.554c-5.724 0-14.04 11.329-14.04 29.083S50.956 70.72 56.68 70.72s14.04-11.329 14.04-29.083-8.32-29.083-14.04-29.083m0 54.4c-2.64 0-10.274-8.705-10.274-25.317S54.04 16.32 56.68 16.32s10.274 8.7 10.274 25.317S59.32 66.954 56.68 66.954"/></g></svg>