<svg xmlns="http://www.w3.org/2000/svg" width="83.274" height="83.274"><defs><clipPath id="a"><path fill="#0c3378" d="M0 0h83.274v83.274H0z"/></clipPath></defs><g clip-path="url(#a)" fill="#0c3378"><path d="M74.277 33.9H9a9.008 9.008 0 00-9 9v31.377a9.007 9.007 0 009 9h65.28a9.007 9.007 0 009-9V42.892a9.008 9.008 0 00-9-9m0 45.613H43.52v-6.692a1.883 1.883 0 10-3.766 0v6.695H9a5.236 5.236 0 01-5.231-5.231v-2.406h22.413a1.883 1.883 0 100-3.766H3.766v-7.637h16.688a1.883 1.883 0 000-3.766H3.766v-7.637h22.416a1.883 1.883 0 100-3.766H3.766v-2.407A5.236 5.236 0 019 37.662h30.754v6.695a1.883 1.883 0 103.766 0v-6.695h30.757a5.236 5.236 0 015.231 5.23V45.3H57.092a1.883 1.883 0 000 3.766h22.416V56.7H62.819a1.883 1.883 0 000 3.766h16.689v7.637H57.092a1.883 1.883 0 100 3.766h22.416v2.406a5.236 5.236 0 01-5.231 5.231"/><path d="M48.592 50.843h-13.91a7.741 7.741 0 000 15.483h13.91a7.741 7.741 0 100-15.483m0 11.717h-13.91a3.976 3.976 0 010-7.951h13.91a3.976 3.976 0 010 7.951M10.954 10.608l4.179-4.179v16.993a1.883 1.883 0 003.766 0V6.429l4.18 4.179a1.883 1.883 0 102.663-2.663L18.348.551a1.884 1.884 0 00-2.663 0L8.291 7.945a1.883 1.883 0 002.663 2.663m23.289.552a1.877 1.877 0 001.331-.551l4.18-4.18v16.994a1.883 1.883 0 103.766 0V6.429l4.18 4.18a1.883 1.883 0 102.662-2.664L42.968.551a1.884 1.884 0 00-2.663 0l-7.393 7.394a1.883 1.883 0 001.331 3.215m25.952-.552l4.18-4.179v16.993a1.883 1.883 0 103.766 0V6.429l4.179 4.179a1.883 1.883 0 102.663-2.663L67.589.551a1.884 1.884 0 00-2.663 0l-7.394 7.394a1.883 1.883 0 102.663 2.663"/></g></svg>