<svg xmlns="http://www.w3.org/2000/svg" width="83.274" height="83.274"><defs><clipPath id="a"><path fill="#0c3378" d="M0 0h83.274v83.274H0z"/></clipPath></defs><g clip-path="url(#a)" fill="#0c3378"><path d="M32.248 41.637a9.389 9.389 0 109.389-9.388 9.4 9.4 0 00-9.389 9.388m9.389-5.622a5.622 5.622 0 11-5.623 5.622 5.628 5.628 0 015.623-5.622"/><path d="M36.048 19.864A22.477 22.477 0 1063.41 47.226a1.883 1.883 0 00-3.648-.934 18.711 18.711 0 11-22.78-22.78 1.883 1.883 0 10-.934-3.648"/><path d="M81.115 46.7a1.884 1.884 0 00-2.18 1.529A37.874 37.874 0 1135.046 4.338 1.883 1.883 0 1034.4.629a41.64 41.64 0 1048.245 48.249 1.884 1.884 0 00-1.53-2.18"/><path d="M82.722 22.4L60.872.551A1.883 1.883 0 0059.54 0H47.134A1.882 1.882 0 0045.8.551L39.763 6.59a6.494 6.494 0 000 9.173l2.7 2.7a1.881 1.881 0 001.168.544A22.648 22.648 0 0164.264 39.64a1.88 1.88 0 00.545 1.169l2.7 2.7a6.485 6.485 0 009.172 0l6.039-6.039a1.879 1.879 0 00.552-1.331V23.734a1.88 1.88 0 00-.552-1.332M79.508 35.36l-5.487 5.487a2.721 2.721 0 01-3.848 0l-2.226-2.227a26.4 26.4 0 00-23.294-23.293L42.426 13.1a2.722 2.722 0 010-3.847l5.488-5.487H58.76L61.293 6.3l-1.74 1.74a1.883 1.883 0 102.663 2.66l1.74-1.74 3.844 3.848-1.74 1.74a1.883 1.883 0 102.663 2.663l1.74-1.74 3.846 3.847-1.74 1.74a1.883 1.883 0 102.663 2.663l1.74-1.74 2.533 2.533z"/></g></svg>