<svg xmlns="http://www.w3.org/2000/svg" width="85.109" height="85.109"><defs><clipPath id="a"><path fill="#0c3378" d="M0 0h85.109v85.109H0z"/></clipPath></defs><g clip-path="url(#a)" fill="#0c3378"><path d="M57.99 58.48l-1.5-1.5.481-.482a8.7 8.7 0 00.182-12.098L70.1 31.462a1.873 1.873 0 00.47-.786l1.81-5.974 3.065-3.064a1.909 1.909 0 00.355-.5l2.075-4.181a5.568 5.568 0 005.461-1.4 5.916 5.916 0 00.3-8.138l-5.952-5.937a5.916 5.916 0 00-8.138.3 5.568 5.568 0 00-1.4 5.461l-4.18 2.071a1.909 1.909 0 00-.495.355l-3.064 3.065-5.974 1.81a1.873 1.873 0 00-.786.47L40.706 27.956a8.7 8.7 0 00-12.093.185l-.482.481-1.5-1.5a1.884 1.884 0 00-2.663 0l-7.878 7.872a1.884 1.884 0 000 2.663l1.5 1.5-3.086 3.086a5.084 5.084 0 000 7.182l.407.407L2.949 61.8a5.682 5.682 0 000 8.027l1.812 1.812-4.21 4.21a1.884 1.884 0 000 2.663L6.6 84.558a1.883 1.883 0 102.66-2.663L4.546 77.18l2.878-2.88 7.858 7.858a5.682 5.682 0 008.027 0l11.965-11.963.407.407a5.084 5.084 0 007.182 0l3.086-3.086 1.5 1.5a1.884 1.884 0 002.663 0l7.875-7.876a1.884 1.884 0 000-2.663m-2.01-40.466l4.893-1.482 7.71 7.71-1.48 4.893L54.5 41.73 43.379 30.609zM75.021 4.145l5.943 5.943a2.193 2.193 0 01-.3 2.812 1.783 1.783 0 01-2.413.091 1.882 1.882 0 00-2.913.592l-2.784 5.61-1.849 1.849-6.638-6.642 1.849-1.848 5.61-2.784a1.882 1.882 0 00.592-2.913 1.784 1.784 0 01.091-2.413 2.193 2.193 0 012.812-.3M20.646 79.5a1.912 1.912 0 01-2.7 0L5.612 67.164a1.912 1.912 0 010-2.7L17.577 52.5l15.034 15.032zM40.2 67.939a1.314 1.314 0 01-1.855 0L17.17 46.765a1.315 1.315 0 010-1.856l3.086-3.086 23.03 23.03zm8.583-2.915l-7.79-7.79 1.226-1.227a1.883 1.883 0 00-2.663-2.664l-1.227 1.227-7.79-7.79 1.227-1.227A1.883 1.883 0 0029.1 42.89l-1.227 1.227-7.791-7.791 5.218-5.212 1.5 1.5a1.882 1.882 0 002.663 0l1.813-1.814a4.934 4.934 0 016.972 0l16.057 16.061a4.936 4.936 0 010 6.972l-1.812 1.813a1.882 1.882 0 000 2.663l1.5 1.5z"/><path d="M13.594 64.493l7.022 7.022a1.883 1.883 0 002.663-2.663l-7.022-7.022a1.883 1.883 0 00-2.663 2.663"/></g></svg>